OpenSim_Sub09_CSBaseline_LCS.mot
version=1
nRows=64
nColumns=11
inDegrees=no
endheader
time	Bot_Shank	2nd_Bot_Shank	2nd_Top_Shank	Top_Shank	Bot_Thigh	Med_Thigh	Top_Thigh	BNOx	BNOy	BNOZ
29.20000000	10400.43240444	10405.05526519	11233.75126383	10827.87627952	13014.90087705	14219.99176277	14817.77518877	208.58178361	-62.21724432	114.84486756
29.21000000	10400.52297723	10403.88275740	11231.62130373	10826.11822298	12988.90014470	14214.78909491	14809.80061048	208.66004393	-62.38509474	115.99565048
29.22000000	10400.58618066	10402.71351646	11229.16946890	10823.61764898	12963.28922342	14208.47373297	14800.32924496	208.53976781	-62.68007661	118.13349741
29.23000000	10400.60977207	10401.63319876	11226.62241082	10820.66805207	12939.66043673	14201.02765529	14789.69840782	208.25910858	-63.08090836	121.00557095
29.24000000	10400.58150878	10400.72746071	11224.20678099	10817.56292681	12919.60610817	14192.43284019	14778.24541464	207.85621953	-63.56630843	124.35903370
29.25000000	10400.48914812	10400.08195872	11222.14923091	10814.59576775	12904.71856129	14182.67126601	14766.30758102	207.36925399	-64.11499524	127.94104827
29.26000000	10400.32044741	10399.78234918	11220.67641207	10812.06006944	12896.59011961	14171.72491106	14754.22222257	206.83636525	-64.70568723	131.49877725
29.27000000	10400.06316397	10399.91428851	11220.01497596	10810.24932644	12896.81310667	14159.57575368	14742.32665488	206.29570662	-65.31710283	134.77938325
29.28000000	10399.71187942	10400.54359033	11220.35039791	10809.41364500	12906.62538389	14146.39255240	14731.02560517	205.78153273	-65.92880550	137.56483199
29.29000000	10399.31161112	10401.58941788	11221.56383549	10809.48246474	12924.64511608	14133.72448831	14721.22201481	205.29928447	-66.52660407	139.89430600
29.30000000	10398.92998189	10402.90520521	11223.40005019	10810.24150150	12948.31631230	14123.73945193	14714.04212617	204.84148830	-67.09910655	141.92227317
29.31000000	10398.63472118	10404.34407637	11225.60316012	10811.47579322	12975.07744313	14118.60825222	14710.61323497	204.40060981	-67.63493414	143.80374515
29.32000000	10398.49355843	10405.75915536	11227.91728338	10812.97037782	13002.36697914	14120.50169818	14712.06263690	203.96911455	-68.12270806	145.69373362
29.33000000	10398.57422310	10407.00356622	11230.08653807	10814.51029322	13027.62339091	14131.59059876	14719.51762766	203.53946809	-68.55104950	147.74725025
29.34000000	10398.94444464	10407.93043298	11231.85504230	10815.88057735	13048.28514902	14154.04576294	14734.10550294	203.10413600	-68.90857968	150.11930671
29.35000000	10399.64685867	10408.41504897	11233.01246302	10816.89606126	13062.20636286	14189.20132895	14756.46023546	202.65742736	-69.18675002	152.90722978
29.36000000	10400.58837401	10408.45261647	11233.59483076	10817.53272055	13069.48924035	14233.86606779	14784.54752282	202.20362248	-69.39231986	155.89634133
29.37000000	10401.63022114	10408.07869260	11233.72108871	10817.82076329	13070.99257747	14283.32575719	14815.43506592	201.75035743	-69.53720039	158.76695932
29.38000000	10402.63359613	10407.32886489	11233.51024250	10817.79043844	13067.57574035	14332.86502722	14846.18988895	201.30527083	-69.63330665	161.19932257
29.39000000	10403.45969507	10406.23872088	11233.08129780	10817.47199496	13060.09809512	14377.76850794	14873.87901609	200.87600127	-69.69255372	162.87366992
29.40000000	10403.96971402	10404.84384809	11232.55326027	10816.89568181	13049.41900792	14413.32082939	14895.56947150	200.47018735	-69.72685664	163.47024019
29.41000000	10404.02484906	10403.17983405	11232.04513555	10816.09174794	13036.39784488	14434.80662163	14908.32827939	200.09546770	-69.74813049	162.66927221
29.42000000	10403.52442207	10401.30972590	11231.65920961	10815.10061064	13021.90571498	14438.50470821	14909.85420321	199.75790568	-69.76679840	160.27224029
29.43000000	10402.57396900	10399.44509368	11231.40733533	10814.01768541	13006.87724170	14426.07128575	14901.26294462	199.45504471	-69.78521416	156.73635479
29.44000000	10401.34842629	10397.84749217	11231.27093071	10812.95689721	12992.26842403	14400.97228306	14884.82016142	199.18156082	-69.80301581	152.73951124
29.45000000	10400.02278267	10396.77851385	11231.23139080	10812.03218493	12979.03527709	14366.67499274	14862.79237800	198.93212789	-69.81983936	148.95977147
29.46000000	10398.77202687	10396.49975117	11231.27011067	10811.35748745	12968.13381600	14326.64670738	14837.44611874	198.70141979	-69.83532082	146.07519733
29.47000000	10397.77114762	10397.27279660	11231.36848538	10811.04674368	12960.52005586	14284.35471957	14811.04790800	198.48411040	-69.84909618	144.76385066
29.48000000	10397.19513366	10399.35924260	11231.50790999	10811.21389249	12957.15001178	14243.26632190	14785.86427019	198.27487360	-69.86080146	145.70379328
29.49000000	10397.21897371	10403.02068163	11231.66977958	10811.97287277	12958.97969888	14206.84880697	14764.16172967	198.06838326	-69.87007265	149.57308705
29.50000000	10398.01765650	10408.51870616	11231.83548919	10813.43762343	12966.96513227	14178.56946736	14748.20681084	197.85931325	-69.87654577	157.04979379
29.51000000	10399.76617078	10416.11490865	11231.98643389	10815.72208335	12982.06232706	14161.89559567	14740.26603806	197.64233745	-69.87985682	168.81197535
29.52000000	10402.58568927	10425.96703483	11232.10668057	10818.88804676	13004.89011013	14159.55581756	14742.12251019	197.41228922	-69.87985765	185.25559567
29.53000000	10406.30630590	10437.67114637	11232.19474744	10822.71526894	13034.24353169	14170.28347238	14752.94458417	197.16486442	-69.87756759	205.25081353
29.54000000	10410.66015326	10450.63427253	11232.25401624	10826.88858615	13068.30385758	14191.46730277	14771.02063657	196.89604922	-69.87439885	227.15428441
29.55000000	10415.37929009	10464.26330013	11232.28787236	10831.09276313	13105.25189113	14220.49503809	14794.63838085	196.60183001	-69.87176396	249.32227681
29.56000000	10420.19577517	10477.96511599	11232.29970120	10835.01256460	13143.26843567	14254.75440771	14822.08553045	196.27819318	-69.87107544	270.11105926
29.57000000	10424.84166725	10491.14660694	11232.29288818	10838.33275530	13180.53429452	14291.63314099	14851.64979882	195.92112510	-69.87374582	287.87690026
29.58000000	10429.04902508	10503.21465978	11232.27081868	10840.73809995	13215.23027101	14328.51896730	14881.61889940	195.52661217	-69.88118762	300.97606833
29.59000000	10432.54990742	10513.57616134	11232.23687812	10841.91336330	13245.53716846	14362.79961601	14910.28054564	195.09064075	-69.89481336	307.76483198
29.60000000	10435.07637303	10521.63799843	11232.19445189	10841.54331008	13269.63579018	14391.86281648	14935.92245099	194.60919725	-69.91603556	306.59945972
29.61000000	10436.36048068	10526.80705788	11232.14692540	10839.31270501	13285.70693951	14413.09629807	14956.83232890	194.07826804	-69.94626675	295.83622008
29.62000000	10436.13428911	10528.49022650	11232.09768404	10834.90631283	13291.93141977	14423.88779016	14971.29789281	193.49383950	-69.98691945	273.83138156
29.63000000	10434.12985709	10526.09439112	11232.05011322	10828.00889827	13286.49003429	14421.62502210	14977.60685617	192.85189802	-70.03940617	238.94121267
29.64000000	10430.07924338	10519.02643854	11232.00759835	10818.30522606	13267.56358638	14403.69572327	14974.04693242	192.14842999	-70.10513946	189.52198194
29.65000000	10423.86333287	10506.96354165	11231.97352892	10805.63811151	13234.04400326	14368.32379945	14959.46205573	191.38186583	-70.18514214	124.71589499
29.66000000	10416.46292868	10491.58045620	11231.95132481	10791.01846240	13190.07886210	14319.91302276	14936.80697900	190.56869899	-70.27755717	49.47372394
29.67000000	10409.35182053	10475.44726052	11231.94441949	10775.98072903	13142.17133797	14265.63699967	14910.87893624	189.73351882	-70.37923668	-28.65034239
29.68000000	10404.00612355	10461.13825614	11231.95624650	10762.06183124	13096.83571722	14212.68240195	14886.48385242	188.90095285	-70.48702675	-102.08983490
29.69000000	10401.90195285	10451.22774463	11231.99023937	10750.79868888	13060.58628623	14168.23590135	14868.42765252	188.09562862	-70.59777342	-163.27828451
29.70000000	10404.31119664	10447.95800578	11232.04828622	10743.54349886	13039.15981512	14138.67479332	14860.92044171	187.33905569	-70.70829983	-205.57631242
29.71000000	10410.99637837	10451.11747135	11232.12085354	10740.28324035	13032.54674317	14124.39457660	14863.76884462	186.62969997	-70.81525961	-229.19631655
29.72000000	10421.04351982	10459.39475115	11232.19328860	10740.39299786	13038.16198715	14123.10969096	14874.80583288	185.95569912	-70.91523044	-237.42168141
29.73000000	10433.53545167	10471.47326713	11232.25091452	10743.24496962	13053.40831514	14132.52192965	14891.85506839	185.30514208	-71.00478963	-233.55027732
29.74000000	10447.55500463	10486.03644124	11232.27905444	10748.21135384	13075.68849521	14150.33308592	14912.74021310	184.66611778	-71.08051450	-220.87997456
29.75000000	10462.18500940	10501.76769545	11232.26303148	10754.66434875	13102.40529544	14174.24495304	14935.28492892	184.02671516	-71.13898236	-202.70864344
29.76000000	10476.50829670	10517.35045169	11232.18816876	10761.97615257	13130.96148391	14201.95932424	14957.31287777	183.37502316	-71.17677053	-182.33415426
29.77000000	10489.60769721	10531.46813194	11232.03978943	10769.51896351	13158.75982869	14231.17799280	14976.64772159	182.69913071	-71.19045632	-163.05437733
29.78000000	10500.66263459	10542.93646212	11231.80791187	10776.70787340	13183.45330012	14259.79429081	14991.38227605	181.98827546	-71.17706885	-147.83020435
29.79000000	10509.56641472	10551.54897728	11231.51725551	10783.27498451	13204.54401947	14287.11714213	15001.59857124	181.24018451	-71.13697628	-137.13204457
29.80000000	10516.53230762	10557.53746938	11231.20809289	10789.09448417	13222.36290298	14313.08994308	15008.27020906	180.45639005	-71.07204335	-130.31406563
29.81000000	10521.77509255	10561.13579764	11230.92076988	10794.04122990	13237.24477628	14337.65908274	15012.37499692	179.63844216	-70.98414186	-126.72516990
29.82000000	10525.50954881	10562.57782129	11230.69563237	10797.99007923	13249.52446500	14360.77095020	15014.89074224	178.78789095	-70.87514361	-125.71425972
29.83000000	10527.95045566	10562.09739954	11230.57302626	10800.81588970	13259.53679479	14382.37193455	15016.79525244	177.90628653	-70.74692041	-126.63023745
